# xmcd
#
# Track frame offsets:
#	150
#	14097
#	27785
#	42486
#	59677
#	77950
#	97855
#	119251
#	140267
#	158428
#	172739
#	186784
#	207804
#	223504
#
# Disc length: 3302 seconds
#
# Revision: 0
# Processed by: cddbd v1.5.1PL2 Copyright (c) Steve Scherf et al.
# Submitted via: audiograbber 1.83.01
#
DISCID=b60ce40e
DTITLE=Southside Johnny and The Asbury Jukes - Going To Jukesville
DYEAR=2002
DGENRE=Rock
TTITLE0=Passion Street
TTITLE1=Baby Dont Lie
TTITLE2=Leaving Behind
TTITLE3=Gladly Go Blind
TTITLE4=She's Still In Love
TTITLE5=Lost In The Night
TTITLE6=No Easy Way Down
TTITLE7=Somebody To Love You
TTITLE8=I Can't Dance
TTITLE9=Change For You Baby
TTITLE10=Lost
TTITLE11=I Will Be Strong
TTITLE12=I Won't Sing
TTITLE13=Tired Skin
EXTD=\n
EXTT0=
EXTT1=
EXTT2=
EXTT3=
EXTT4=
EXTT5=
EXTT6=
EXTT7=
EXTT8=
EXTT9=
EXTT10=
EXTT11=
EXTT12=
EXTT13=
PLAYORDER=
